<?xml version="1.0" encoding="UTF-8"?>
<svg xmlns="http://www.w3.org/2000/svg" xmlns:xlink="http://www.w3.org/1999/xlink" width="32px" height="32px" viewBox="0 0 32 32" version="1.1">
<defs>
<linearGradient id="linear0" gradientUnits="userSpaceOnUse" x1="2754.8547" y1="-66.7466" x2="-181.6601" y2="2502.7039" gradientTransform="matrix(0.0128,0,0,0.0128,0,0)">
<stop offset="0.2463" style="stop-color:rgb(0%,21.960784%,100%);stop-opacity:1;"/>
<stop offset="0.7912" style="stop-color:rgb(100%,30.588235%,0%);stop-opacity:1;"/>
</linearGradient>
</defs>
<g id="surface1">
<path style=" stroke:none;fill-rule:nonzero;fill:url(#linear0);" d="M 30.015625 9.121094 L 30.015625 22.878906 C 30.015625 23.628906 29.617188 24.324219 28.964844 24.699219 L 17.050781 31.578125 C 16.398438 31.953125 15.601562 31.953125 14.949219 31.578125 L 3.035156 24.699219 C 2.382812 24.324219 1.984375 23.628906 1.984375 22.878906 L 1.984375 9.121094 C 1.984375 8.371094 2.382812 7.675781 3.035156 7.300781 L 14.949219 0.421875 C 15.601562 0.046875 16.398438 0.046875 17.050781 0.421875 L 28.964844 7.300781 C 29.617188 7.675781 30.015625 8.371094 30.015625 9.121094 Z M 30.015625 9.121094 "/>
<path style=" stroke:none;fill-rule:nonzero;fill:rgb(100%,100%,100%);fill-opacity:1;" d="M 22.445312 20.519531 L 22.445312 24.027344 L 9.554688 24.027344 L 12.046875 20.519531 Z M 22.445312 20.519531 "/>
<path style=" stroke:none;fill-rule:nonzero;fill:rgb(100%,100%,100%);fill-opacity:1;" d="M 22.445312 7.972656 L 22.445312 11.480469 L 12.046875 11.480469 L 9.554688 7.972656 Z M 22.445312 7.972656 "/>
<path style=" stroke:none;fill-rule:nonzero;fill:rgb(100%,100%,100%);fill-opacity:1;" d="M 9.554688 14.1875 L 20.066406 14.1875 L 20.066406 17.582031 L 9.554688 17.582031 Z M 9.554688 14.1875 "/>
</g>
</svg>
