<?xml version="1.0" encoding="utf-8"?>
<!-- Generator: Adobe Illustrator 24.1.1, SVG Export Plug-In . SVG Version: 6.00 Build 0)  -->
<svg version="1.1" id="Layer_1" xmlns="http://www.w3.org/2000/svg" xmlns:xlink="http://www.w3.org/1999/xlink" x="0px" y="0px"
	 viewBox="0 0 2500 2500" style="enable-background:new 0 0 2500 2500;" xml:space="preserve">
<style type="text/css">
	.st0{fill:url(#SVGID_1_);}
	.st1{fill:#FFFFFF;}
</style>
<g>
	<linearGradient id="SVGID_1_" gradientUnits="userSpaceOnUse" x1="2754.8547" y1="-66.7466" x2="-181.6601" y2="2502.7039">
		<stop  offset="0.2463" style="stop-color:#0038FF"/>
		<stop  offset="0.7912" style="stop-color:#FF4E00"/>
	</linearGradient>
	<path class="st0" d="M2344.97,712.5v1075.03c0,58.57-31.26,112.68-81.98,141.97l-931.03,537.51c-50.72,29.29-113.21,29.29-163.96,0
		l-931-537.51c-50.72-29.29-81.98-83.4-81.98-141.97V712.5c0-58.58,31.26-112.72,81.98-142l931-537.51
		c50.75-29.29,113.24-29.29,163.96,0l931.03,537.51C2313.71,599.79,2344.97,653.93,2344.97,712.5z"/>
	<g>
		<polygon class="st1" points="1753.56,1603.05 1753.56,1877.23 746.44,1877.23 941.15,1603.05 		"/>
		<polygon class="st1" points="1753.56,622.77 1753.56,896.96 941.15,896.96 746.44,622.77 		"/>
		<rect x="746.44" y="1108.44" class="st1" width="821.31" height="265.2"/>
	</g>
</g>
</svg>
